<svg width="69" height="79" viewBox="0 0 69 79" fill="none" xmlns="http://www.w3.org/2000/svg">
<path d="M38.8042 75.3928L39.0889 75.5247L39.3315 75.3257L67.3109 52.3754L67.5499 52.1793L67.4814 51.8779L64.3508 38.11L64.2938 37.8592L64.0567 37.7598L52.8013 33.0375L29.7922 3.25632L29.4996 2.87769L29.1085 3.15328L3.80422 20.9824L3.60689 21.1214L3.59303 21.3624L1.50082 57.7612L1.48131 58.1006L1.78981 58.2436L38.8042 75.3928Z" fill="#60CADA" stroke="#60CADA"/>
<path d="M42.3307 45.0534L29.2739 5.30273L51.6155 34.3178L62.9314 38.3799L42.3307 45.0534Z" fill="#242021"/>
<path d="M42.6204 45.9236L39.4287 73.1978L65.8324 51.7266L62.9309 38.3796L42.6204 45.9236Z" fill="#242021"/>
<path d="M34.2073 19.8099L42.3315 45.053L27.5636 31.6576L34.2073 19.8099Z" fill="#242021"/>
<path d="M39.4293 45.6336L62.9317 38.3798L52.4862 47.3746L39.4293 45.6336Z" fill="#60CADA"/>
<path d="M39.4267 73.4894L49.5845 54.6296L32.4656 57.5296L11.5722 46.2153L39.4267 73.4894Z" fill="#242021"/>
</svg>
