<svg width="118" height="105" viewBox="0 0 118 105" fill="none" xmlns="http://www.w3.org/2000/svg">
<circle cx="42.3763" cy="22.3859" r="8.03304" transform="rotate(-44.7453 42.3763 22.3859)" stroke="#60CADA" stroke-width="7.37623"/>
<circle cx="42.3762" cy="22.386" r="5.60683" transform="rotate(-44.7453 42.3762 22.386)" stroke="#242021" stroke-width="3"/>
<path d="M92.9741 82.9033L40.3931 29.8526L33.8898 30.4738L47.6417 44.3486L47.607 52.1491L73.4931 78.2663L92.9741 82.9033Z" fill="#60CADA"/>
<path d="M50.6982 51.5621L75.0885 76.5568L82.1838 78.4918L50.6982 51.5621Z" fill="#242021"/>
<circle cx="27.3921" cy="47.2663" r="8.03304" transform="rotate(-74.7453 27.3921 47.2663)" stroke="#60CADA" stroke-width="7.37623"/>
<path d="M104.755 61.4561L32.9034 41.8607L30.2543 35.8974L49.0463 41.0224L55.8035 37.1479L91.1767 46.7949L104.755 61.4561Z" fill="#60CADA"/>
<circle cx="27.3921" cy="47.2663" r="5.58474" transform="rotate(-74.7453 27.3921 47.2663)" stroke="#242021" stroke-width="3"/>
<path d="M56.3953 39.6236L89.9462 48.7269L95.0437 53.9654L56.3953 39.6236Z" fill="#242021"/>
</svg>
