<svg width="326" height="96" viewBox="0 0 326 96" fill="none" xmlns="http://www.w3.org/2000/svg">
<path d="M24.635 78.9375C21.2287 78.9375 18.0881 78.0625 15.2131 76.3125C12.3694 74.5625 10.0881 72.2344 8.36935 69.3281C6.68185 66.3906 5.8381 63.1719 5.8381 59.6719V55.2656C5.8381 54.9219 5.99435 54.75 6.30685 54.75H17.0881C17.3381 54.75 17.4631 54.9219 17.4631 55.2656V59.6719C17.4631 61.7656 18.1662 63.5781 19.5725 65.1094C20.9787 66.6094 22.6662 67.3594 24.635 67.3594C26.635 67.3594 28.3381 66.5938 29.7444 65.0625C31.1506 63.5 31.8537 61.7031 31.8537 59.6719C31.8537 57.3281 30.3225 55.2812 27.26 53.5312C26.76 53.2188 26.1037 52.8438 25.2912 52.4062C24.51 51.9375 23.5725 51.4062 22.4787 50.8125C21.385 50.2188 20.3225 49.6406 19.2912 49.0781C18.26 48.4844 17.26 47.9219 16.2912 47.3906C12.7912 45.3281 10.1819 42.75 8.4631 39.6562C6.7756 36.5312 5.93185 33.0312 5.93185 29.1562C5.93185 25.5938 6.80685 22.375 8.55685 19.5C10.3069 16.6562 12.5881 14.4062 15.4006 12.75C18.2444 11.0625 21.3225 10.2188 24.635 10.2188C28.0412 10.2188 31.1662 11.0625 34.01 12.75C36.8537 14.4688 39.1194 16.75 40.8069 19.5938C42.5256 22.4375 43.385 25.625 43.385 29.1562V37.0312C43.385 37.2812 43.26 37.4062 43.01 37.4062H32.2287C31.9787 37.4062 31.8537 37.2812 31.8537 37.0312L31.76 29.1562C31.76 26.9062 31.0569 25.0781 29.6506 23.6719C28.2444 22.2656 26.5725 21.5625 24.635 21.5625C22.6662 21.5625 20.9787 22.3125 19.5725 23.8125C18.1662 25.3125 17.4631 27.0938 17.4631 29.1562C17.4631 31.25 17.9006 33 18.7756 34.4062C19.6819 35.8125 21.3225 37.1562 23.6975 38.4375C23.9475 38.5625 24.5256 38.875 25.4319 39.375C26.3381 39.875 27.3381 40.4375 28.4319 41.0625C29.5569 41.6562 30.5725 42.2031 31.4787 42.7031C32.385 43.1719 32.9319 43.4531 33.1194 43.5469C36.3069 45.3281 38.8225 47.5156 40.6662 50.1094C42.5412 52.7031 43.4787 55.8906 43.4787 59.6719C43.4787 63.3281 42.635 66.6094 40.9475 69.5156C39.2287 72.4219 36.9475 74.7188 34.1037 76.4062C31.26 78.0938 28.1037 78.9375 24.635 78.9375ZM67.8069 78.9375C64.3381 78.9375 61.1662 78.0625 58.2912 76.3125C55.4475 74.5625 53.1819 72.2188 51.4944 69.2812C49.8381 66.3125 49.01 63.0156 49.01 59.3906L49.1037 29.4375C49.1037 25.875 49.9162 22.6562 51.5412 19.7812C53.1662 16.875 55.4006 14.5469 58.2444 12.7969C61.1194 11.0156 64.3069 10.125 67.8069 10.125C71.3694 10.125 74.5412 10.9844 77.3225 12.7031C80.135 14.4219 82.3694 16.75 84.0256 19.6875C85.7131 22.5938 86.5569 25.8437 86.5569 29.4375V33.8438C86.5569 34.0938 86.4319 34.2188 86.1819 34.2188H75.4006C75.1506 34.2188 75.0256 34.0938 75.0256 33.8438V29.4375C75.0256 27.3125 74.3381 25.4844 72.9631 23.9531C71.5881 22.4219 69.8694 21.6562 67.8069 21.6562C65.5256 21.6562 63.7756 22.4375 62.5569 24C61.3381 25.5625 60.7287 27.375 60.7287 29.4375V59.3906C60.7287 61.7344 61.4162 63.6562 62.7912 65.1562C64.1662 66.625 65.8381 67.3594 67.8069 67.3594C69.8694 67.3594 71.5881 66.5469 72.9631 64.9219C74.3381 63.2656 75.0256 61.4219 75.0256 59.3906V54.9375C75.0256 54.6875 75.1506 54.5625 75.4006 54.5625H86.2756C86.5256 54.5625 86.6506 54.6875 86.6506 54.9375V59.3906C86.6506 62.9844 85.8069 66.2656 84.1194 69.2344C82.4006 72.1719 80.135 74.5312 77.3225 76.3125C74.51 78.0625 71.3381 78.9375 67.8069 78.9375ZM104.979 78H94.1037C93.7912 78 93.635 77.8438 93.635 77.5312L93.7287 11.5781C93.7287 11.3281 93.8537 11.2031 94.1037 11.2031H104.885C105.135 11.2031 105.26 11.3281 105.26 11.5781L105.354 77.5312C105.354 77.8438 105.229 78 104.979 78ZM130.104 78.9375C126.697 78.9375 123.557 78.0625 120.682 76.3125C117.838 74.5625 115.557 72.2344 113.838 69.3281C112.151 66.3906 111.307 63.1719 111.307 59.6719V55.2656C111.307 54.9219 111.463 54.75 111.776 54.75H122.557C122.807 54.75 122.932 54.9219 122.932 55.2656V59.6719C122.932 61.7656 123.635 63.5781 125.041 65.1094C126.447 66.6094 128.135 67.3594 130.104 67.3594C132.104 67.3594 133.807 66.5938 135.213 65.0625C136.619 63.5 137.322 61.7031 137.322 59.6719C137.322 57.3281 135.791 55.2812 132.729 53.5312C132.229 53.2188 131.572 52.8438 130.76 52.4062C129.979 51.9375 129.041 51.4062 127.947 50.8125C126.854 50.2188 125.791 49.6406 124.76 49.0781C123.729 48.4844 122.729 47.9219 121.76 47.3906C118.26 45.3281 115.651 42.75 113.932 39.6562C112.244 36.5312 111.401 33.0312 111.401 29.1562C111.401 25.5938 112.276 22.375 114.026 19.5C115.776 16.6562 118.057 14.4062 120.869 12.75C123.713 11.0625 126.791 10.2188 130.104 10.2188C133.51 10.2188 136.635 11.0625 139.479 12.75C142.322 14.4688 144.588 16.75 146.276 19.5938C147.994 22.4375 148.854 25.625 148.854 29.1562V37.0312C148.854 37.2812 148.729 37.4062 148.479 37.4062H137.697C137.447 37.4062 137.322 37.2812 137.322 37.0312L137.229 29.1562C137.229 26.9062 136.526 25.0781 135.119 23.6719C133.713 22.2656 132.041 21.5625 130.104 21.5625C128.135 21.5625 126.447 22.3125 125.041 23.8125C123.635 25.3125 122.932 27.0938 122.932 29.1562C122.932 31.25 123.369 33 124.244 34.4062C125.151 35.8125 126.791 37.1562 129.166 38.4375C129.416 38.5625 129.994 38.875 130.901 39.375C131.807 39.875 132.807 40.4375 133.901 41.0625C135.026 41.6562 136.041 42.2031 136.947 42.7031C137.854 43.1719 138.401 43.4531 138.588 43.5469C141.776 45.3281 144.291 47.5156 146.135 50.1094C148.01 52.7031 148.947 55.8906 148.947 59.6719C148.947 63.3281 148.104 66.6094 146.416 69.5156C144.697 72.4219 142.416 74.7188 139.572 76.4062C136.729 78.0938 133.572 78.9375 130.104 78.9375ZM171.916 78.9375C168.51 78.9375 165.369 78.0625 162.494 76.3125C159.651 74.5625 157.369 72.2344 155.651 69.3281C153.963 66.3906 153.119 63.1719 153.119 59.6719V55.2656C153.119 54.9219 153.276 54.75 153.588 54.75H164.369C164.619 54.75 164.744 54.9219 164.744 55.2656V59.6719C164.744 61.7656 165.447 63.5781 166.854 65.1094C168.26 66.6094 169.947 67.3594 171.916 67.3594C173.916 67.3594 175.619 66.5938 177.026 65.0625C178.432 63.5 179.135 61.7031 179.135 59.6719C179.135 57.3281 177.604 55.2812 174.541 53.5312C174.041 53.2188 173.385 52.8438 172.572 52.4062C171.791 51.9375 170.854 51.4062 169.76 50.8125C168.666 50.2188 167.604 49.6406 166.572 49.0781C165.541 48.4844 164.541 47.9219 163.572 47.3906C160.072 45.3281 157.463 42.75 155.744 39.6562C154.057 36.5312 153.213 33.0312 153.213 29.1562C153.213 25.5938 154.088 22.375 155.838 19.5C157.588 16.6562 159.869 14.4062 162.682 12.75C165.526 11.0625 168.604 10.2188 171.916 10.2188C175.322 10.2188 178.447 11.0625 181.291 12.75C184.135 14.4688 186.401 16.75 188.088 19.5938C189.807 22.4375 190.666 25.625 190.666 29.1562V37.0312C190.666 37.2812 190.541 37.4062 190.291 37.4062H179.51C179.26 37.4062 179.135 37.2812 179.135 37.0312L179.041 29.1562C179.041 26.9062 178.338 25.0781 176.932 23.6719C175.526 22.2656 173.854 21.5625 171.916 21.5625C169.947 21.5625 168.26 22.3125 166.854 23.8125C165.447 25.3125 164.744 27.0938 164.744 29.1562C164.744 31.25 165.182 33 166.057 34.4062C166.963 35.8125 168.604 37.1562 170.979 38.4375C171.229 38.5625 171.807 38.875 172.713 39.375C173.619 39.875 174.619 40.4375 175.713 41.0625C176.838 41.6562 177.854 42.2031 178.76 42.7031C179.666 43.1719 180.213 43.4531 180.401 43.5469C183.588 45.3281 186.104 47.5156 187.947 50.1094C189.822 52.7031 190.76 55.8906 190.76 59.6719C190.76 63.3281 189.916 66.6094 188.229 69.5156C186.51 72.4219 184.229 74.7188 181.385 76.4062C178.541 78.0938 175.385 78.9375 171.916 78.9375ZM215.182 78.9375C211.776 78.9375 208.635 78.0625 205.76 76.3125C202.916 74.5625 200.619 72.2344 198.869 69.3281C197.151 66.3906 196.291 63.1719 196.291 59.6719L196.385 29.25C196.385 25.6875 197.244 22.4844 198.963 19.6406C200.651 16.7656 202.932 14.4688 205.807 12.75C208.682 11 211.807 10.125 215.182 10.125C218.682 10.125 221.822 10.9844 224.604 12.7031C227.416 14.4219 229.666 16.7344 231.354 19.6406C233.072 22.5156 233.932 25.7188 233.932 29.25L234.026 59.6719C234.026 63.1719 233.182 66.375 231.494 69.2812C229.776 72.2188 227.494 74.5625 224.651 76.3125C221.807 78.0625 218.651 78.9375 215.182 78.9375ZM215.182 67.3594C217.119 67.3594 218.807 66.5781 220.244 65.0156C221.682 63.4219 222.401 61.6406 222.401 59.6719L222.307 29.25C222.307 27.125 221.635 25.3281 220.291 23.8594C218.947 22.3906 217.244 21.6562 215.182 21.6562C213.213 21.6562 211.526 22.375 210.119 23.8125C208.713 25.25 208.01 27.0625 208.01 29.25V59.6719C208.01 61.7656 208.713 63.5781 210.119 65.1094C211.526 66.6094 213.213 67.3594 215.182 67.3594ZM252.541 78H241.666C241.416 78 241.291 77.8438 241.291 77.5312L241.479 11.5781C241.479 11.3281 241.604 11.2031 241.854 11.2031H261.26C264.729 11.2031 267.916 12.0469 270.822 13.7344C273.729 15.4219 276.041 17.6875 277.76 20.5312C279.51 23.375 280.385 26.5937 280.385 30.1875C280.385 32.5312 280.026 34.6562 279.307 36.5625C278.588 38.4688 277.744 40.0781 276.776 41.3906C275.838 42.7031 274.979 43.6719 274.197 44.2969C277.666 48.1406 279.401 52.6562 279.401 57.8438L279.494 77.5312C279.494 77.8438 279.338 78 279.026 78H268.151C267.901 78 267.776 77.9062 267.776 77.7188V57.8438C267.776 55.5312 266.963 53.5312 265.338 51.8438C263.713 50.1562 261.713 49.3125 259.338 49.3125H253.01L252.916 77.5312C252.916 77.8438 252.791 78 252.541 78ZM261.26 22.6875H253.01V37.7812H261.26C263.229 37.7812 264.979 37.0469 266.51 35.5781C268.072 34.1094 268.854 32.3125 268.854 30.1875C268.854 28.1563 268.104 26.4062 266.604 24.9375C265.104 23.4375 263.322 22.6875 261.26 22.6875ZM303.916 78.9375C300.51 78.9375 297.369 78.0625 294.494 76.3125C291.651 74.5625 289.369 72.2344 287.651 69.3281C285.963 66.3906 285.119 63.1719 285.119 59.6719V55.2656C285.119 54.9219 285.276 54.75 285.588 54.75H296.369C296.619 54.75 296.744 54.9219 296.744 55.2656V59.6719C296.744 61.7656 297.447 63.5781 298.854 65.1094C300.26 66.6094 301.947 67.3594 303.916 67.3594C305.916 67.3594 307.619 66.5938 309.026 65.0625C310.432 63.5 311.135 61.7031 311.135 59.6719C311.135 57.3281 309.604 55.2812 306.541 53.5312C306.041 53.2188 305.385 52.8438 304.572 52.4062C303.791 51.9375 302.854 51.4062 301.76 50.8125C300.666 50.2188 299.604 49.6406 298.572 49.0781C297.541 48.4844 296.541 47.9219 295.572 47.3906C292.072 45.3281 289.463 42.75 287.744 39.6562C286.057 36.5312 285.213 33.0312 285.213 29.1562C285.213 25.5938 286.088 22.375 287.838 19.5C289.588 16.6562 291.869 14.4062 294.682 12.75C297.526 11.0625 300.604 10.2188 303.916 10.2188C307.322 10.2188 310.447 11.0625 313.291 12.75C316.135 14.4688 318.401 16.75 320.088 19.5938C321.807 22.4375 322.666 25.625 322.666 29.1562V37.0312C322.666 37.2812 322.541 37.4062 322.291 37.4062H311.51C311.26 37.4062 311.135 37.2812 311.135 37.0312L311.041 29.1562C311.041 26.9062 310.338 25.0781 308.932 23.6719C307.526 22.2656 305.854 21.5625 303.916 21.5625C301.947 21.5625 300.26 22.3125 298.854 23.8125C297.447 25.3125 296.744 27.0938 296.744 29.1562C296.744 31.25 297.182 33 298.057 34.4062C298.963 35.8125 300.604 37.1562 302.979 38.4375C303.229 38.5625 303.807 38.875 304.713 39.375C305.619 39.875 306.619 40.4375 307.713 41.0625C308.838 41.6562 309.854 42.2031 310.76 42.7031C311.666 43.1719 312.213 43.4531 312.401 43.5469C315.588 45.3281 318.104 47.5156 319.947 50.1094C321.822 52.7031 322.76 55.8906 322.76 59.6719C322.76 63.3281 321.916 66.6094 320.229 69.5156C318.51 72.4219 316.229 74.7188 313.385 76.4062C310.541 78.0938 307.385 78.9375 303.916 78.9375Z" fill="white"/>
<path d="M0.143555 50.5L325.601 36.4866L325.603 39.2038L1.49521 65.5002L0.143555 50.5Z" fill="#242021"/>
</svg>
